<svg width="2732" height="2732" viewBox="0 0 2732 2732" fill="none" xmlns="http://www.w3.org/2000/svg">
<g clip-path="url(#clip0_1_2)">
<path d="M2732 0H0V2732H2732V0Z" fill="black"/>
<mask id="mask0_1_2" style="mask-type:luminance" maskUnits="userSpaceOnUse" x="939" y="1236" width="854" height="261">
<path d="M1792.27 1236H939V1497H1792.27V1236Z" fill="white"/>
</mask>
<g mask="url(#mask0_1_2)">
<path fill-rule="evenodd" clip-rule="evenodd" d="M1044.34 1304.43V1345.15C1044.34 1345.58 1044.17 1346 1043.81 1346.3C1043.17 1346.85 1042.19 1346.78 1041.63 1346.14C1021.54 1323.18 999.818 1317.13 985.335 1318.87C979.916 1319.52 975.569 1321.26 972.777 1323.58C970.208 1325.72 969.003 1328.35 969.602 1331.03C970.418 1334.68 974.409 1338.56 982.555 1341.78L982.632 1341.81C985.239 1342.84 988.165 1343.91 991.359 1345.08C1015.52 1353.94 1054.76 1368.33 1054.76 1397.97C1054.76 1404.22 1053.66 1409.86 1051.66 1414.87C1047.95 1424.16 1041.13 1431.24 1032.42 1435.98C1023.79 1440.69 1013.31 1443.1 1002.18 1443.1C981.593 1443.06 962.915 1443.1 942.42 1443.1C941.566 1443.1 940.693 1442.06 940.693 1441.21V1394.24C940.693 1393.87 940.833 1393.48 941.126 1393.19C941.719 1392.58 942.694 1392.56 943.313 1393.15C943.402 1393.23 972.203 1422.45 992.914 1424.49C1000.04 1425.18 1005.84 1424.71 1009.78 1422.67C1013.49 1420.75 1015.57 1417.31 1015.57 1411.94C1015.21 1401.67 1000.95 1396.27 985.571 1390.46C972.407 1385.48 958.472 1380.21 950.918 1371.05C942.465 1360.81 938.914 1350.98 939.01 1342.12C939.099 1334.09 942.165 1326.88 947.271 1320.88C952.327 1314.95 959.396 1310.19 967.562 1307C981.242 1301.65 998.058 1300.68 1013.67 1305.89C1024.56 1308.28 1040.86 1303.42 1042.23 1303C1042.41 1302.94 1042.59 1302.9 1042.79 1302.9C1043.64 1302.9 1044.34 1303.58 1044.34 1304.43H1044.34Z" fill="white"/>
<path fill-rule="evenodd" clip-rule="evenodd" d="M1077.16 1271.36C1076.11 1270.39 1075.15 1269.47 1075.15 1267.1C1075.15 1264.9 1076.02 1264.05 1076.92 1263.17L1076.99 1263.1C1082.46 1257.7 1087.93 1252.19 1093.39 1246.7L1101.57 1238.47L1101.68 1238.37C1103.28 1236.76 1105.47 1234.53 1109.16 1237.35C1109.89 1237.9 1110.68 1238.75 1111.39 1239.49C1111.53 1239.63 1111.65 1239.77 1112.06 1240.17L1115.06 1243.19C1121.49 1249.59 1135.21 1263.27 1135.71 1264.02C1136.94 1265.86 1136.93 1267.51 1136.37 1268.97C1135.97 1270.02 1135.34 1270.76 1134.74 1271.36C1134.69 1271.43 1134.63 1271.49 1134.57 1271.55L1111.12 1295.04C1107.67 1298.5 1106.01 1300.16 1101.65 1295.89C1101.58 1295.83 1101.52 1295.77 1101.45 1295.71L1077.15 1271.37L1077.16 1271.36Z" fill="white"/>
<path fill-rule="evenodd" clip-rule="evenodd" d="M1757.58 1341.48C1762.59 1330.41 1742.36 1314.16 1741.06 1313.13C1740.65 1312.84 1740.38 1312.36 1740.38 1311.83C1740.38 1310.94 1741.1 1310.23 1741.97 1310.23H1790.69C1791.1 1310.23 1791.5 1310.39 1791.81 1310.7C1792.44 1311.31 1792.44 1312.32 1791.82 1312.95C1791.78 1312.99 1778.35 1326.49 1772.93 1337.48C1772.19 1339.49 1730.74 1452.41 1698.89 1480.3C1698.85 1480.34 1698.82 1480.37 1698.78 1480.4C1694.16 1484.46 1687.38 1489.27 1679.54 1492.66C1673.56 1495.24 1666.96 1497 1660.21 1497C1653.47 1497 1647.06 1494.25 1642.52 1489.78C1637.99 1485.31 1635.18 1479.14 1635.18 1472.32C1635.18 1472.21 1635.18 1472.29 1635.19 1471.9C1635.3 1465.23 1638.08 1459.16 1642.52 1454.76C1646.97 1450.36 1653.07 1447.64 1659.81 1447.64C1659.93 1447.64 1659.86 1447.64 1660.24 1447.65C1671.62 1447.81 1677.13 1455.75 1682.07 1462.87C1685.29 1467.49 1688.23 1471.73 1692.22 1472.6C1694.24 1472.87 1697.79 1469.29 1701.35 1464.29C1705.41 1458.6 1709.27 1451.16 1711.07 1445.12L1641.54 1312.67C1641.39 1312.43 1641.3 1312.14 1641.3 1311.83C1641.3 1310.95 1642.02 1310.23 1642.89 1310.23H1722.4C1722.96 1310.23 1723.51 1310.54 1723.8 1311.08C1724.21 1311.85 1723.93 1312.82 1723.15 1313.23C1723.09 1313.26 1704.98 1322.91 1711.63 1336.38L1711.68 1336.47L1737.17 1390.53L1757.59 1341.49L1757.58 1341.48Z" fill="white"/>
<path fill-rule="evenodd" clip-rule="evenodd" d="M1625.12 1350.59C1628.35 1349.58 1631.29 1347.85 1633.72 1345.62C1636.17 1343.37 1638.1 1340.62 1639.29 1337.56C1642.08 1330.42 1640.91 1321.6 1632.99 1313.63C1632.91 1313.56 1632.83 1313.5 1632.75 1313.44C1622.55 1306.52 1611.58 1305.49 1600.89 1308.77C1590.42 1311.99 1580.27 1319.38 1571.45 1329.43V1311.82C1571.45 1310.94 1570.74 1310.22 1569.86 1310.22H1508.95C1508.07 1310.22 1507.35 1310.94 1507.35 1311.82C1507.35 1312.39 1507.65 1312.89 1508.1 1313.17C1509.35 1314.1 1523.71 1324.89 1523.71 1333.55V1416.38C1523.71 1416.43 1523.71 1416.48 1523.72 1416.53C1523.91 1424.76 1508.25 1438.55 1508.2 1438.58C1507.55 1439.16 1507.48 1440.17 1508.07 1440.83C1508.38 1441.19 1508.82 1441.37 1509.26 1441.37H1592.29C1593.18 1441.37 1593.89 1440.65 1593.89 1439.77C1593.89 1439.12 1593.5 1438.56 1592.94 1438.31C1591.41 1437.49 1571.46 1426.74 1571.46 1419.44V1344.63C1572.14 1340.88 1573.54 1337.62 1575.47 1335.21C1577.09 1333.21 1579.07 1331.82 1581.3 1331.27C1583.53 1330.72 1586.07 1331.01 1588.8 1332.37C1592.06 1333.99 1595.58 1337.11 1599.18 1342.1C1599.21 1342.15 1599.25 1342.19 1599.29 1342.23C1607.36 1351.32 1617.12 1353.11 1625.13 1350.59H1625.12Z" fill="white"/>
<path fill-rule="evenodd" clip-rule="evenodd" d="M1502.02 1408.34C1501.51 1408.04 1500.9 1408.07 1500.42 1408.35C1499.19 1409.07 1420.86 1454.11 1419.81 1374.35H1500.27C1501.15 1374.35 1501.86 1373.63 1501.86 1372.75C1503.15 1352.86 1496.51 1337.02 1485.56 1325.87C1480.07 1320.28 1473.51 1315.88 1466.32 1312.74C1459.15 1309.61 1451.36 1307.74 1443.39 1307.21C1424.87 1305.98 1405.44 1312.03 1390.86 1326.35C1388.74 1328.24 1386.8 1330.31 1385.04 1332.54C1375.22 1344.94 1370.67 1362.26 1371.13 1379.34C1372.35 1424.08 1407.43 1453.39 1451.57 1445.61C1467.86 1442.74 1483.36 1434.61 1494.57 1421.83C1497.58 1418.39 1500.29 1414.61 1502.61 1410.51C1503.04 1409.75 1502.77 1408.78 1502.01 1408.34L1502.02 1408.34ZM1422.27 1341.01C1423.55 1333.12 1425.25 1326.65 1427.2 1323.8L1427.25 1323.74C1428.94 1321.02 1431.89 1319.11 1435.32 1318.09C1437.94 1317.32 1440.82 1317.06 1443.62 1317.36C1446.39 1317.65 1449.06 1318.48 1451.31 1319.88C1453.87 1321.49 1455.89 1323.84 1456.82 1326.98C1456.84 1327.05 1456.86 1327.11 1456.88 1327.16C1457.99 1330.05 1458.71 1334.92 1459.22 1341C1459.71 1346.91 1459.98 1353.82 1460.18 1361.13L1419.83 1368.26C1420.03 1359.39 1420.91 1349.44 1422.28 1341L1422.27 1341.01Z" fill="white"/>
<path fill-rule="evenodd" clip-rule="evenodd" d="M1309.35 1445.01C1309.8 1445.77 1310.77 1446.02 1311.53 1445.57C1311.83 1445.39 1312.05 1445.14 1312.18 1444.84L1366.06 1330.8C1369.58 1323.52 1381.61 1313.05 1381.65 1313.02C1382.31 1312.44 1382.37 1311.43 1381.79 1310.77C1381.48 1310.42 1381.04 1310.23 1380.59 1310.23H1331.88C1331 1310.23 1330.28 1310.94 1330.28 1311.83C1330.28 1312.4 1330.59 1312.91 1331.05 1313.19C1332.54 1314.24 1353.76 1329.47 1349.63 1339.11L1329.21 1383.25L1300.56 1335.78C1293.9 1323 1312.68 1313.26 1312.73 1313.23C1313.5 1312.82 1313.81 1311.86 1313.39 1311.08C1313.1 1310.54 1312.56 1310.23 1311.98 1310.23H1232.18C1231.3 1310.23 1230.58 1310.94 1230.58 1311.83C1230.58 1312.16 1230.69 1312.47 1230.86 1312.72L1309.34 1445.02L1309.35 1445.01Z" fill="white"/>
<path fill-rule="evenodd" clip-rule="evenodd" d="M1234.56 1441.37H1158.91C1158.48 1441.37 1158.05 1441.19 1157.73 1440.84C1157.14 1440.19 1157.19 1439.18 1157.85 1438.59C1157.89 1438.55 1173.36 1424.65 1173.36 1416.38V1264.7C1173.36 1256.05 1159 1245.24 1157.75 1244.32C1157.31 1244.04 1157.01 1243.55 1157.01 1242.98C1157.01 1242.1 1157.73 1241.38 1158.61 1241.38H1219.52C1220.4 1241.38 1221.11 1242.1 1221.11 1242.98V1419.45C1221.11 1427.21 1234.28 1437.55 1235.44 1438.45C1235.87 1438.74 1236.15 1439.23 1236.15 1439.78C1236.15 1440.66 1235.44 1441.38 1234.56 1441.38V1441.37Z" fill="white"/>
<path fill-rule="evenodd" clip-rule="evenodd" d="M1143.23 1441.37H1067.59C1067.15 1441.37 1066.71 1441.19 1066.39 1440.83C1065.81 1440.17 1065.87 1439.17 1066.53 1438.59C1066.57 1438.55 1082.24 1424.77 1082.04 1416.54C1082.04 1416.48 1082.04 1416.43 1082.04 1416.38V1333.55C1082.04 1324.89 1067.68 1314.1 1066.43 1313.17C1065.98 1312.89 1065.69 1312.39 1065.69 1311.83C1065.69 1310.94 1066.4 1310.23 1067.28 1310.23H1128.19C1129.07 1310.23 1129.78 1310.94 1129.78 1311.83V1419.45C1129.78 1427.21 1142.95 1437.55 1144.11 1438.45C1144.54 1438.74 1144.83 1439.22 1144.83 1439.78C1144.83 1440.66 1144.11 1441.37 1143.23 1441.37Z" fill="white"/>
</g>
</g>
<defs>
<clipPath id="clip0_1_2">
<rect width="2732" height="2732" fill="white"/>
</clipPath>
</defs>
</svg>
