<svg width="1024" height="1024" viewBox="0 0 1024 1024" fill="none" xmlns="http://www.w3.org/2000/svg">
<rect width="1024" height="1024" fill="black"/>
<g clip-path="url(#clip0_582_4437)">
<path fill-rule="evenodd" clip-rule="evenodd" d="M240.796 459.676V494.002C240.796 494.363 240.646 494.718 240.345 494.971C239.802 495.434 238.98 495.375 238.507 494.842C221.576 475.485 203.264 470.382 191.056 471.852C186.489 472.401 182.824 473.865 180.471 475.824C178.305 477.628 177.29 479.845 177.795 482.106C178.482 485.18 181.846 488.452 188.713 491.165L188.778 491.187C190.975 492.053 193.442 492.958 196.134 493.948C216.504 501.414 249.576 513.542 249.576 538.523C249.576 543.793 248.652 548.546 246.965 552.771C243.832 560.603 238.088 566.567 230.748 570.567C223.468 574.534 214.634 576.569 205.252 576.569C187.902 576.531 172.158 576.569 154.883 576.569C154.163 576.569 153.427 575.686 153.427 574.975V535.385C153.427 535.067 153.545 534.744 153.792 534.497C154.292 533.985 155.114 533.969 155.635 534.459C155.71 534.529 179.987 559.166 197.445 560.883C203.452 561.459 208.336 561.066 211.663 559.344C214.784 557.729 216.541 554.833 216.541 550.306C216.241 541.645 204.215 537.097 191.255 532.193C180.159 527.994 168.413 523.554 162.046 515.84C154.921 507.206 151.928 498.922 152.008 491.445C152.084 484.679 154.668 478.607 158.972 473.547C163.233 468.547 169.192 464.537 176.075 461.845C187.606 457.34 201.781 456.516 214.94 460.909C224.123 462.927 237.863 458.825 239.018 458.476C239.163 458.422 239.319 458.389 239.485 458.389C240.205 458.389 240.791 458.965 240.791 459.676H240.796Z" fill="white"/>
<path fill-rule="evenodd" clip-rule="evenodd" d="M268.457 431.811C267.576 430.988 266.759 430.218 266.759 428.21C266.759 426.364 267.495 425.642 268.258 424.905L268.317 424.846C272.927 420.292 277.538 415.652 282.137 411.023L289.031 404.084L289.128 403.993C290.471 402.636 292.32 400.763 295.431 403.137C296.043 403.605 296.715 404.316 297.311 404.94C297.43 405.064 297.532 405.177 297.876 405.516L300.406 408.057C305.823 413.456 317.386 424.986 317.811 425.621C318.842 427.166 318.837 428.56 318.364 429.793C318.025 430.675 317.493 431.3 316.994 431.811C316.951 431.865 316.902 431.913 316.849 431.967L297.086 451.765C294.173 454.683 292.771 456.082 289.096 452.481C289.042 452.433 288.988 452.384 288.934 452.336L268.451 431.817L268.457 431.811Z" fill="white"/>
<path fill-rule="evenodd" clip-rule="evenodd" d="M841.992 490.912C846.216 481.578 829.161 467.879 828.065 467.012C827.721 466.77 827.495 466.366 827.495 465.914C827.495 465.171 828.097 464.568 828.839 464.568H869.901C870.245 464.568 870.584 464.703 870.847 464.961C871.374 465.483 871.374 466.334 870.852 466.861C870.82 466.894 859.499 478.273 854.931 487.537C854.308 489.232 819.366 584.416 792.521 607.923C792.488 607.955 792.456 607.982 792.424 608.009C788.534 611.432 782.816 615.486 776.207 618.344C771.173 620.519 765.606 622.004 759.921 622.004C754.236 622.004 748.83 619.679 745.01 615.916C741.184 612.148 738.82 606.943 738.82 601.2C738.82 601.108 738.82 601.173 738.825 600.844C738.922 595.219 741.265 590.106 745.01 586.397C748.755 582.688 753.897 580.39 759.582 580.39C759.684 580.39 759.62 580.39 759.937 580.401C769.534 580.541 774.182 587.231 778.346 593.228C781.054 597.125 783.536 600.699 786.895 601.431C788.604 601.657 791.591 598.643 794.595 594.428C798.017 589.632 801.268 583.361 802.784 578.274L744.177 466.625C744.048 466.42 743.978 466.178 743.978 465.919C743.978 465.177 744.58 464.574 745.322 464.574H812.332C812.81 464.574 813.272 464.832 813.514 465.284C813.863 465.936 813.621 466.754 812.966 467.104C812.923 467.125 797.652 475.259 803.256 486.611L803.299 486.692L824.787 532.257L841.998 490.922L841.992 490.912Z" fill="white"/>
<path fill-rule="evenodd" clip-rule="evenodd" d="M730.344 498.591C733.062 497.735 735.54 496.282 737.592 494.398C739.65 492.508 741.278 490.188 742.283 487.61C744.631 481.587 743.648 474.158 736.969 467.441C736.904 467.376 736.84 467.322 736.77 467.274C728.173 461.444 718.92 460.572 709.914 463.339C701.091 466.052 692.532 472.28 685.101 480.758V465.912C685.101 465.169 684.499 464.566 683.757 464.566H632.415C631.674 464.566 631.072 465.169 631.072 465.912C631.072 466.391 631.319 466.811 631.701 467.048C632.754 467.828 644.86 476.925 644.86 484.224V554.044C644.86 554.087 644.86 554.131 644.865 554.174C645.032 561.112 631.824 572.728 631.787 572.76C631.233 573.25 631.18 574.101 631.674 574.655C631.937 574.957 632.308 575.107 632.679 575.107H702.671C703.413 575.107 704.014 574.504 704.014 573.762C704.014 573.213 703.687 572.739 703.214 572.529C701.919 571.84 685.106 562.775 685.106 556.628V493.569C685.681 490.404 686.863 487.653 688.491 485.629C689.851 483.939 691.522 482.766 693.402 482.308C695.283 481.845 697.422 482.087 699.721 483.234C702.472 484.601 705.438 487.228 708.474 491.437C708.501 491.475 708.528 491.507 708.56 491.545C715.368 499.21 723.595 500.717 730.349 498.591H730.344Z" fill="white"/>
<path fill-rule="evenodd" clip-rule="evenodd" d="M626.578 547.264C626.142 547.016 625.632 547.038 625.229 547.28C624.192 547.877 558.165 585.847 557.284 518.616H625.1C625.841 518.616 626.443 518.014 626.443 517.271C627.529 500.503 621.93 487.154 612.704 477.756C608.077 473.04 602.543 469.332 596.487 466.683C590.437 464.046 583.871 462.469 577.159 462.022C561.545 460.988 545.167 466.086 532.873 478.159C531.094 479.747 529.461 481.491 527.972 483.375C519.692 493.823 515.856 508.427 516.248 522.826C517.274 560.532 546.843 585.245 584.048 578.683C597.782 576.261 610.85 569.414 620.296 558.637C622.838 555.736 625.116 552.555 627.072 549.099C627.437 548.453 627.212 547.635 626.567 547.269L626.578 547.264ZM559.352 490.513C560.432 483.865 561.862 478.407 563.511 476.012L563.549 475.958C564.978 473.665 567.466 472.055 570.351 471.199C572.56 470.543 574.989 470.327 577.348 470.575C579.68 470.823 581.936 471.522 583.833 472.707C585.993 474.058 587.691 476.039 588.476 478.692C588.492 478.746 588.508 478.795 588.529 478.843C589.459 481.276 590.071 485.378 590.501 490.502C590.915 495.487 591.141 501.311 591.307 507.469L557.294 513.481C557.466 506.005 558.202 497.618 559.358 490.507L559.352 490.513Z" fill="white"/>
<path fill-rule="evenodd" clip-rule="evenodd" d="M464.172 578.177C464.549 578.818 465.371 579.028 466.01 578.651C466.263 578.5 466.445 578.285 466.558 578.032L511.973 481.906C514.945 475.775 525.079 466.948 525.111 466.921C525.67 466.431 525.723 465.586 525.234 465.026C524.971 464.724 524.6 464.568 524.224 464.568H483.162C482.42 464.568 481.818 465.171 481.818 465.914C481.818 466.399 482.076 466.824 482.463 467.061C483.715 467.949 501.608 480.792 498.126 488.909L480.91 526.121L456.763 486.105C451.153 475.329 466.977 467.125 467.02 467.098C467.676 466.754 467.928 465.941 467.579 465.284C467.337 464.827 466.875 464.568 466.392 464.568H399.123C398.382 464.568 397.78 465.171 397.78 465.914C397.78 466.194 397.866 466.458 398.011 466.673L464.167 578.183L464.172 578.177Z" fill="white"/>
<path fill-rule="evenodd" clip-rule="evenodd" d="M401.131 575.11H337.367C337.001 575.11 336.636 574.959 336.367 574.663C335.873 574.114 335.916 573.264 336.469 572.763C336.507 572.731 349.548 561.012 349.548 554.047V426.195C349.548 418.901 337.442 409.794 336.389 409.019C336.013 408.782 335.765 408.362 335.765 407.883C335.765 407.14 336.367 406.537 337.109 406.537H388.45C389.192 406.537 389.794 407.14 389.794 407.883V556.636C389.794 563.171 400.895 571.891 401.873 572.65C402.233 572.892 402.475 573.301 402.475 573.77C402.475 574.512 401.873 575.115 401.131 575.115V575.11Z" fill="white"/>
<path fill-rule="evenodd" clip-rule="evenodd" d="M324.152 575.115H260.387C260.016 575.109 259.651 574.959 259.382 574.657C258.893 574.103 258.942 573.258 259.495 572.762C259.533 572.73 272.74 561.119 272.574 554.176C272.574 554.133 272.568 554.09 272.568 554.046V484.226C272.568 476.927 260.462 467.83 259.409 467.05C259.033 466.813 258.786 466.393 258.786 465.914C258.786 465.171 259.388 464.568 260.129 464.568H311.471C312.212 464.568 312.814 465.171 312.814 465.914V556.636C312.814 563.17 323.916 571.89 324.893 572.649C325.253 572.892 325.495 573.301 325.495 573.769C325.495 574.512 324.893 575.115 324.152 575.115Z" fill="white"/>
</g>
<defs>
<clipPath id="clip0_582_4437">
<rect width="719.231" height="220" fill="white" transform="translate(152 402)"/>
</clipPath>
</defs>
</svg>
