<svg width="1024" height="1024" viewBox="0 0 1024 1024" fill="none" xmlns="http://www.w3.org/2000/svg">
<rect x="0.5" y="0.5" width="1023" height="1023" stroke="white"/>
<path fill-rule="evenodd" clip-rule="evenodd" d="M501.485 232.088C499.176 232.643 498.414 232.903 496.908 233.65C495.963 234.119 494.326 235.196 493.27 236.044C490.263 238.459 402.669 326.1 401.523 327.839C398.281 332.762 398.191 341.901 401.331 347.286C402.01 348.452 412.003 358.59 444.704 391.29C468.073 414.659 488.432 434.889 489.945 436.246C493.497 439.431 495.315 440.784 497.717 442.032C501.437 443.965 504.411 444.357 507.694 443.344C509.729 442.717 512.995 440.601 515.886 438.036C517.01 437.038 537.217 416.96 560.79 393.419C604.35 349.916 604.721 349.531 606.552 345.901C607.707 343.612 608.449 340.397 608.461 337.642C608.481 332.642 606.763 328.521 602.836 324.157C599.285 320.208 517.557 238.543 515.783 237.169C513.268 235.223 510.24 233.532 508.011 232.829C506.029 232.204 502.615 231.816 501.485 232.088ZM644.783 375.78C640.305 377.129 628.966 379.903 623.088 381.086L617.892 382.133L589.722 410.257L561.552 438.381L565.246 440.228C584.074 449.645 601.676 461.748 619.056 477.228C624.38 481.97 633.708 491.176 638.748 496.664C645.89 504.437 645.915 504.461 647.204 504.822C649.349 505.421 651.705 504.371 652.593 502.418C653.073 501.362 653.086 499.697 653.086 439.983C653.086 380.268 653.073 378.603 652.593 377.547C651.984 376.208 650.504 375.181 648.932 375.008C648.076 374.913 646.986 375.116 644.783 375.78ZM398.2 399.674C387.008 406.449 378.059 413.363 369.968 421.485C352.65 438.873 342.511 458.744 339.589 481.022C339.017 485.379 338.81 495.587 339.199 500.228C339.949 509.182 341.692 517.501 344.674 526.366C346.851 532.839 348.751 537.318 352.209 544.135C357.747 555.052 363.837 564.38 372.413 575.078C383.82 589.309 398.442 600.28 421.058 611.578C434.803 618.444 446.717 623.437 474.202 633.849C505.66 645.765 513.518 648.975 525.389 654.757C539.845 661.798 549.778 668.392 556.259 675.252C565.884 685.437 568.984 695.868 566.302 709.038C562.275 728.815 545.03 737.949 513.177 737.179C494.346 736.723 482.351 734.043 465.108 726.438C433.636 712.557 394.009 683.872 356.277 647.66C353.441 644.938 350.752 642.553 350.303 642.36C349.813 642.15 348.908 642.05 348.05 642.112C346.303 642.239 345.154 643.002 344.414 644.528C343.899 645.59 343.895 646.16 343.898 716.27L343.9 786.942L344.506 788.241C345.224 789.781 346.626 791.089 347.983 791.484C349.404 791.898 537.862 791.693 542.408 791.273C556.716 789.949 563.896 788.896 573.974 786.643C593.378 782.304 612.191 774.545 627.504 764.564C646.868 751.944 662.267 734.735 671.547 715.345C679.972 697.744 684.083 678.952 684.06 658.146C684.052 650.935 683.657 646.192 682.573 640.287C676.34 606.341 651.243 576.294 606.977 549.783C580.215 533.755 548.774 519.824 497.067 501.083C464.99 489.456 457.17 486.086 447.699 479.808C438.26 473.552 432.427 466.725 430.371 459.53C429.91 457.918 429.79 456.843 429.797 454.38C429.804 451.561 429.885 451.035 430.647 448.808C431.11 447.455 431.853 445.704 432.298 444.917C433.567 442.669 436.179 439.451 438.26 437.574L440.164 435.856L421.067 416.777C410.563 406.284 401.852 397.701 401.709 397.704C401.566 397.706 399.987 398.593 398.2 399.674Z" fill="white"/>
</svg>
